<svg xmlns="http://www.w3.org/2000/svg" width="100" height="100" viewBox="0 0 100 100" shape-rendering="crispEdges" aria-label="WhatsPlan">
  <rect x="6" y="6" width="88" height="88" rx="14" fill="#0a1f14"/>
  <rect x="11" y="11" width="78" height="78" rx="11" fill="#25d366"/>
  <rect x="11" y="11" width="78" height="8" fill="#1aab52"/>
  <rect x="11" y="81" width="78" height="8" fill="#1aab52"/>
  <rect x="21" y="27" width="26" height="22" fill="#fff"/>
  <rect x="53" y="27" width="26" height="22" fill="#fff"/>
  <rect x="21" y="51" width="26" height="22" fill="#fff"/>
  <rect x="53" y="51" width="26" height="22" fill="#fff"/>
  <rect x="27" y="38" width="4" height="4" fill="#0a1f14"/>
  <rect x="31" y="42" width="4" height="4" fill="#0a1f14"/>
  <rect x="35" y="38" width="4" height="4" fill="#0a1f14"/>
  <rect x="39" y="34" width="4" height="4" fill="#0a1f14"/>
  <rect x="59" y="62" width="4" height="4" fill="#0a1f14"/>
  <rect x="63" y="66" width="4" height="4" fill="#0a1f14"/>
  <rect x="67" y="62" width="4" height="4" fill="#0a1f14"/>
  <rect x="71" y="58" width="4" height="4" fill="#0a1f14"/>
  <rect x="57" y="34" width="18" height="4" fill="#0a1f14" opacity="0.45"/>
  <rect x="57" y="40" width="12" height="4" fill="#0a1f14" opacity="0.3"/>
  <rect x="25" y="58" width="18" height="4" fill="#0a1f14" opacity="0.45"/>
  <rect x="25" y="64" width="12" height="4" fill="#0a1f14" opacity="0.3"/>
</svg>
